<?xml version="1.0"?>
<svg xmlns="http://www.w3.org/2000/svg" height="512px" version="1.1" viewBox="0 0 934 934.99674" width="512px" class=""><g><g id="surface1">
<path d="M 924.664062 125.425781 L 535.082031 0.765625 C 531.992188 -0.253906 528.664062 -0.253906 525.582031 0.765625 L 136 125.425781 C 129.546875 127.492188 125.171875 133.492188 125.167969 140.261719 L 125.167969 202.59375 C 125.167969 211.199219 132.144531 218.179688 140.753906 218.179688 L 187.496094 218.179688 L 187.496094 311.671875 L 218.664062 311.671875 L 218.664062 218.179688 L 280.996094 218.179688 L 280.996094 311.671875 L 312.167969 311.671875 L 312.167969 218.179688 L 374.496094 218.179688 L 374.496094 311.671875 L 405.664062 311.671875 L 405.664062 218.179688 L 467.996094 218.179688 L 467.996094 311.671875 L 499.15625 311.671875 L 499.15625 218.179688 L 561.492188 218.179688 L 561.492188 311.671875 L 592.65625 311.671875 L 592.65625 218.179688 L 654.988281 218.179688 L 654.988281 311.671875 L 686.15625 311.671875 L 686.15625 218.179688 L 748.492188 218.179688 L 748.492188 514.257812 L 717.320312 514.257812 L 717.320312 545.421875 L 904.320312 545.421875 L 904.320312 607.753906 L 717.320312 607.753906 L 717.320312 638.917969 L 919.902344 638.917969 C 928.507812 638.917969 935.484375 631.945312 935.484375 623.335938 L 935.484375 529.835938 C 935.484375 521.226562 928.507812 514.257812 919.902344 514.257812 L 873.152344 514.257812 L 873.152344 218.179688 L 919.902344 218.179688 C 928.507812 218.179688 935.484375 211.199219 935.484375 202.59375 L 935.484375 140.261719 C 935.484375 133.492188 931.109375 127.492188 924.664062 125.425781 Z M 841.988281 514.257812 L 779.65625 514.257812 L 779.65625 218.179688 L 841.988281 218.179688 Z M 904.320312 187.011719 L 156.335938 187.011719 L 156.335938 151.617188 L 530.328125 31.953125 L 904.320312 151.617188 Z M 904.320312 187.011719 " data-original="#000000" class="active-path" data-old_color="#595757" fill="#6D6C6C"/>
<path d="M 483.582031 109.09375 C 483.582031 134.910156 504.507812 155.84375 530.328125 155.84375 C 556.152344 155.84375 577.078125 134.910156 577.078125 109.09375 C 577.078125 83.269531 556.152344 62.34375 530.328125 62.34375 C 504.507812 62.34375 483.582031 83.269531 483.582031 109.09375 Z M 545.90625 109.09375 C 545.90625 117.699219 538.9375 124.679688 530.328125 124.679688 C 521.722656 124.679688 514.742188 117.699219 514.742188 109.09375 C 514.742188 100.488281 521.722656 93.507812 530.328125 93.507812 C 538.9375 93.507812 545.90625 100.488281 545.90625 109.09375 Z M 545.90625 109.09375 " data-original="#000000" class="active-path" data-old_color="#595757" fill="#6D6C6C"/>
<path d="M 567.453125 872.667969 L 594.21875 926.371094 C 596.871094 931.6875 602.304688 935.03125 608.242188 934.996094 L 670.570312 934.996094 C 679.179688 934.996094 686.15625 928.019531 686.15625 919.410156 L 686.15625 358.425781 C 686.15625 349.824219 679.179688 342.84375 670.570312 342.84375 L 16.082031 342.84375 C 7.480469 342.84375 0.5 349.824219 0.5 358.425781 L 0.5 919.410156 C 0.5 928.019531 7.480469 934.996094 16.082031 934.996094 L 78.417969 934.996094 C 84.332031 934.996094 89.726562 931.664062 92.363281 926.371094 L 119.21875 872.667969 Z M 654.988281 903.828125 L 617.875 903.828125 L 602.289062 872.667969 L 654.988281 872.667969 Z M 31.667969 374.007812 L 654.988281 374.007812 L 654.988281 841.5 L 31.667969 841.5 Z M 68.792969 903.828125 L 31.667969 903.828125 L 31.667969 872.667969 L 84.378906 872.667969 Z M 68.792969 903.828125 " data-original="#000000" class="active-path" data-old_color="#595757" fill="#6D6C6C"/>
<path d="M 623.828125 794.746094 L 623.828125 420.753906 C 623.828125 412.148438 616.847656 405.175781 608.242188 405.175781 L 78.417969 405.175781 C 69.8125 405.175781 62.832031 412.148438 62.832031 420.753906 L 62.832031 794.746094 C 62.832031 803.351562 69.8125 810.332031 78.417969 810.332031 L 608.242188 810.332031 C 616.847656 810.332031 623.828125 803.351562 623.828125 794.746094 Z M 94.003906 498.671875 L 125.167969 498.671875 L 125.167969 529.835938 L 94.003906 529.835938 Z M 94.003906 685.667969 L 125.167969 685.667969 L 125.167969 716.835938 L 94.003906 716.835938 Z M 592.65625 779.167969 L 94.003906 779.167969 L 94.003906 747.996094 L 140.753906 747.996094 C 149.359375 747.996094 156.335938 741.027344 156.335938 732.421875 L 156.335938 670.085938 C 156.335938 661.480469 149.359375 654.503906 140.753906 654.503906 L 94.003906 654.503906 L 94.003906 561.007812 L 140.753906 561.007812 C 149.359375 561.007812 156.335938 554.027344 156.335938 545.421875 L 156.335938 483.085938 C 156.335938 474.484375 149.359375 467.507812 140.753906 467.507812 L 94.003906 467.507812 L 94.003906 436.335938 L 592.65625 436.335938 Z M 592.65625 779.167969 " data-original="#000000" class="active-path" data-old_color="#595757" fill="#6D6C6C"/>
<path d="M 387.472656 650.648438 L 364.257812 673.867188 L 386.296875 695.90625 L 409.515625 672.691406 C 417.796875 678.21875 427.070312 682.097656 436.828125 684.109375 L 436.828125 716.835938 L 467.996094 716.835938 L 467.996094 684.109375 C 477.753906 682.101562 487.03125 678.226562 495.320312 672.703125 L 518.539062 695.914062 L 540.570312 673.882812 L 517.347656 650.667969 C 522.875 642.375 526.757812 633.097656 528.777344 623.335938 L 561.492188 623.335938 L 561.492188 592.167969 L 528.777344 592.167969 C 526.757812 582.417969 522.886719 573.136719 517.355469 564.851562 L 540.582031 541.628906 L 518.546875 519.597656 L 495.332031 542.816406 C 487.039062 537.277344 477.753906 533.40625 467.996094 531.386719 L 467.996094 498.671875 L 436.828125 498.671875 L 436.828125 531.386719 C 427.070312 533.402344 417.796875 537.269531 409.515625 542.808594 L 386.296875 519.582031 L 364.257812 541.617188 L 387.472656 564.839844 C 381.945312 573.125 378.066406 582.410156 376.054688 592.167969 L 343.328125 592.167969 L 343.328125 623.335938 L 376.054688 623.335938 C 378.066406 633.09375 381.949219 642.367188 387.472656 650.648438 Z M 452.414062 561.007812 C 478.234375 561.007812 499.15625 581.929688 499.15625 607.753906 C 499.15625 633.570312 478.234375 654.503906 452.414062 654.503906 C 426.59375 654.503906 405.664062 633.570312 405.664062 607.753906 C 405.664062 581.929688 426.59375 561.007812 452.414062 561.007812 Z M 452.414062 561.007812 " data-original="#000000" class="active-path" data-old_color="#595757" fill="#6D6C6C"/>
</g></g> </svg>
